<svg width="35" height="35" viewBox="0 0 35 35" fill="none" xmlns="http://www.w3.org/2000/svg">
<path d="M17.4998 2.91675C9.46442 2.91675 2.9165 9.46466 2.9165 17.5001C2.9165 25.5355 9.46442 32.0834 17.4998 32.0834C25.5353 32.0834 32.0832 25.5355 32.0832 17.5001C32.0832 9.46466 25.5353 2.91675 17.4998 2.91675ZM22.3998 20.8542C22.8228 21.2772 22.8228 21.9772 22.3998 22.4001C22.1811 22.6188 21.904 22.7209 21.6269 22.7209C21.3498 22.7209 21.0728 22.6188 20.854 22.4001L17.4998 19.0459L14.1457 22.4001C13.9269 22.6188 13.6498 22.7209 13.3728 22.7209C13.0957 22.7209 12.8186 22.6188 12.5998 22.4001C12.1769 21.9772 12.1769 21.2772 12.5998 20.8542L15.954 17.5001L12.5998 14.1459C12.1769 13.723 12.1769 13.023 12.5998 12.6001C13.0228 12.1772 13.7228 12.1772 14.1457 12.6001L17.4998 15.9542L20.854 12.6001C21.2769 12.1772 21.9769 12.1772 22.3998 12.6001C22.8228 13.023 22.8228 13.723 22.3998 14.1459L19.0457 17.5001L22.3998 20.8542Z" fill="#292D32"/>
</svg>
