<svg width="83" height="42" viewBox="0 0 83 42" fill="none" xmlns="http://www.w3.org/2000/svg">
<path fill-rule="evenodd" clip-rule="evenodd" d="M35.8436 6.04492H30.565V41.8033H35.8436V28.0534L38.0572 41.8033H44.3575L40.1431 23.7538L44.1021 6.04492H38.0572L35.8436 19.7097V6.04492ZM22.0936 6.12995H16.517L16.4319 41.8032H26.5208V36.0989H22.0936V6.12995ZM0 41.7178V6.08707H6.47057C10.8297 5.95085 12.2316 9.01018 12.3877 10.5569V19.9647C12.4218 22.1784 11.0397 23.2142 10.3444 23.4554C10.1457 23.498 9.86762 23.6172 10.3444 23.7534C12.3196 24.1621 12.6432 26.5914 12.558 27.755V36.0986C12.7283 40.8323 8.7977 41.8171 6.81112 41.7178H0ZM5.93509 11.5789H5.19346V21.6253H5.93509C6.51294 21.6253 6.98138 21.1569 6.98138 20.579V12.6252C6.98138 12.0473 6.51294 11.5789 5.93509 11.5789ZM5.93519 25.9676H5.19356V36.014H5.93519C6.51304 36.014 6.98148 35.5455 6.98148 34.9677V27.0139C6.98148 26.436 6.51304 25.9676 5.93519 25.9676Z" fill="black"/>
<path fill-rule="evenodd" clip-rule="evenodd" d="M67.6011 34.5903C67.7213 34.5774 67.7764 34.7527 67.6671 34.8043C62.6763 37.1604 53.4758 41.3539 51.8244 41.5166C51.8096 41.518 51.7993 41.5215 51.7859 41.5282C51.3441 41.747 48.8209 42.238 48.5693 39.177C48.3141 36.0714 48.2289 16.0014 50.5658 12.0675C50.5689 12.0623 50.5712 12.0574 50.5733 12.0517C50.5976 11.9863 50.6293 11.8845 50.6708 11.7509C51.2247 9.9682 53.5386 2.52186 63.7241 0.311058C66.7882 -0.454969 74.2769 -0.285015 79.7254 6.52021C79.7286 6.52415 79.7315 6.52838 79.7341 6.53273C79.822 6.68267 79.9197 6.84479 80.0246 7.01901C81.6497 9.71799 85.0236 15.3211 81.3479 23.5114C80.965 24.7027 78.201 29.4229 74.2034 31.0858C74.1986 31.0878 74.1941 31.0893 74.1891 31.0906C73.2268 31.3296 70.0207 31.813 68.5345 32.0253C65.1147 32.6781 57.7899 32.2552 55.8487 25.3419C55.5933 23.6817 53.9331 12.8265 65.1715 12.0602C67.1297 12.0602 71.0461 12.1028 73.5151 15.9766C75.9744 19.8353 74.6748 24.8343 73.781 25.3362C73.7736 25.3404 73.7679 25.3442 73.7615 25.3498C73.3604 25.7004 71.5589 26.8941 70.9219 24.5041C70.9196 24.4954 70.9183 24.486 70.9183 24.477V16.5495C70.9183 16.4917 70.8715 16.4449 70.8137 16.4449H68.0431C67.9853 16.4449 67.9385 16.4917 67.9385 16.5495V18.0856C67.9385 18.1434 67.8916 18.1902 67.8339 18.1902H67.7909C67.751 18.1902 67.7149 18.168 67.6966 18.1325C66.631 16.0701 62.7183 14.2649 59.8503 18.7862C59.099 20.2745 58.2515 24.0311 60.8634 27.1622C60.869 27.1689 60.8749 27.1746 60.882 27.1796C61.954 27.949 65.5302 30.1207 67.9069 26.2873C67.9261 26.2563 67.962 26.2381 67.9906 26.2607C68.0482 26.3061 68.1307 26.4108 68.2418 26.5517C68.9173 27.4085 70.6461 29.6015 74.1962 27.8961C78.5383 25.8102 77.8146 19.3822 77.2186 17.5517C76.6227 15.7212 74.1536 9.67634 66.1506 9.5912C59.7638 9.52325 56.5175 12.4996 55.6846 14.0073C55.6803 14.015 55.6758 14.0213 55.6698 14.0277C54.2353 15.5691 51.7651 20.075 53.2946 25.8528C55.1294 32.7843 62.0803 35.1857 67.6011 34.5903ZM65.1288 25.7679C66.6099 25.7679 67.8106 24.2051 67.8106 22.2772C67.8106 20.3493 66.6099 18.7865 65.1288 18.7865C63.6476 18.7865 62.4469 20.3493 62.4469 22.2772C62.4469 24.2051 63.6476 25.7679 65.1288 25.7679Z" fill="#EB1D25"/>
</svg>
