<svg width="120" height="120" viewBox="0 0 120 120" fill="none" xmlns="http://www.w3.org/2000/svg">
<path opacity="0.4" d="M92.3502 84.1501L94.3002 99.95C94.8002 104.1 90.3502 107 86.8002 104.85L65.8502 92.3999C63.5502 92.3999 61.3003 92.2501 59.1003 91.9501C62.8003 87.6001 65.0002 82.0999 65.0002 76.1499C65.0002 61.9499 52.7002 50.4501 37.5002 50.4501C31.7002 50.4501 26.3502 52.1 21.9002 55C21.7502 53.75 21.7002 52.5 21.7002 51.2C21.7002 28.45 41.4502 10 65.8502 10C90.2502 10 110 28.45 110 51.2C110 64.7 103.05 76.6501 92.3502 84.1501Z" fill="#292D32"/>
<path d="M65 76.15C65 82.1 62.8 87.6001 59.1 91.9501C54.15 97.9501 46.3 101.8 37.5 101.8L24.45 109.55C22.25 110.9 19.45 109.05 19.75 106.5L21 96.6501C14.3 92.0001 10 84.55 10 76.15C10 67.35 14.7 59.6001 21.9 55.0001C26.35 52.1001 31.7 50.4502 37.5 50.4502C52.7 50.4502 65 61.95 65 76.15Z" fill="#292D32"/>
</svg>
