<svg width="25" height="24" viewBox="0 0 25 24" fill="none" xmlns="http://www.w3.org/2000/svg">
<path fill-rule="evenodd" clip-rule="evenodd" d="M6.21967 5.71967C6.51256 5.42678 6.98744 5.42678 7.28033 5.71967L12.5 10.9393L17.7197 5.71967C18.0126 5.42678 18.4874 5.42678 18.7803 5.71967C19.0732 6.01256 19.0732 6.48744 18.7803 6.78033L13.5607 12L18.7803 17.2197C19.0732 17.5126 19.0732 17.9874 18.7803 18.2803C18.4874 18.5732 18.0126 18.5732 17.7197 18.2803L12.5 13.0607L7.28033 18.2803C6.98744 18.5732 6.51256 18.5732 6.21967 18.2803C5.92678 17.9874 5.92678 17.5126 6.21967 17.2197L11.4393 12L6.21967 6.78033C5.92678 6.48744 5.92678 6.01256 6.21967 5.71967Z" fill="#24292E"/>
</svg>
